<svg width="547" height="112" viewBox="0 0 547 112" fill="none" xmlns="http://www.w3.org/2000/svg">
<path d="M282.423 16.6922L276.5 48L299.754 53.2651C301.225 53.5982 301.812 55.3784 300.827 56.5212L266.098 96.8244C265.1 97.9823 263.213 97.0807 263.486 95.5769L269.5 62.5L247.48 59.0459C245.947 58.8053 245.26 56.985 246.252 55.7913L279.796 15.4543C280.786 14.264 282.711 15.1711 282.423 16.6922Z" fill="black"/>
<path d="M32.1094 90.3594C25.4844 90.3594 20.6719 87.7031 17.6719 82.3906L16.8281 89H9.04688V16.0625H17.6719V43.2031C19.1094 40.4844 21.0938 38.4844 23.625 37.2031C26.1562 35.8906 29 35.2344 32.1562 35.2344C35.9062 35.2344 39.0625 36.0469 41.625 37.6719C44.1875 39.2656 46.2344 41.4062 47.7656 44.0938C49.3281 46.75 50.4375 49.7031 51.0938 52.9531C51.7812 56.2031 52.125 59.4531 52.125 62.7031C52.125 65.9844 51.7812 69.2656 51.0938 72.5469C50.4062 75.7969 49.2812 78.7656 47.7188 81.4531C46.1875 84.1406 44.1406 86.2969 41.5781 87.9219C39.0156 89.5469 35.8594 90.3594 32.1094 90.3594ZM30.375 83.0469C33.125 83.0469 35.3281 82.4062 36.9844 81.125C38.6719 79.8438 39.9375 78.1719 40.7812 76.1094C41.6562 74.0469 42.25 71.8438 42.5625 69.5C42.875 67.1562 43.0312 64.9219 43.0312 62.7969C43.0312 60.6719 42.875 58.4375 42.5625 56.0938C42.25 53.7188 41.6562 51.5156 40.7812 49.4844C39.9375 47.4219 38.6719 45.75 36.9844 44.4688C35.3281 43.1875 33.125 42.5469 30.375 42.5469C27.6562 42.5469 25.4531 43.1875 23.7656 44.4688C22.1094 45.75 20.8281 47.4062 19.9219 49.4375C19.0469 51.4688 18.4531 53.6719 18.1406 56.0469C17.8281 58.3906 17.6719 60.625 17.6719 62.75C17.6719 64.9062 17.8281 67.1719 18.1406 69.5469C18.4531 71.8906 19.0469 74.0938 19.9219 76.1562C20.8281 78.1875 22.1094 79.8438 23.7656 81.125C25.4531 82.4062 27.6562 83.0469 30.375 83.0469ZM86.8125 90.3594C79.5 90.3594 73.9062 88 70.0312 83.2812C66.1875 78.5312 64.2656 71.7188 64.2656 62.8438C64.2656 53.9375 66.2031 47.1094 70.0781 42.3594C73.9531 37.6094 79.5156 35.2344 86.7656 35.2344C94.0156 35.2344 99.5625 37.6094 103.406 42.3594C107.281 47.0781 109.219 53.9219 109.219 62.8906C109.219 71.7969 107.297 78.6094 103.453 83.3281C99.6094 88.0156 94.0625 90.3594 86.8125 90.3594ZM86.7656 83.0469C91.0469 83.0469 94.3281 81.2969 96.6094 77.7969C98.9219 74.2969 100.078 69.2812 100.078 62.75C100.078 56.25 98.9219 51.2656 96.6094 47.7969C94.3281 44.2969 91.0469 42.5469 86.7656 42.5469C82.4531 42.5469 79.1406 44.2969 76.8281 47.7969C74.5469 51.2656 73.4062 56.25 73.4062 62.75C73.4062 69.2812 74.5625 74.2969 76.875 77.7969C79.1875 81.2969 82.4844 83.0469 86.7656 83.0469ZM154.172 89.375C149.016 89.375 145.016 87.7188 142.172 84.4062C139.359 81.0625 137.953 76.375 137.953 70.3438V22.8125H124.125V16.0625H146.578V70.3438C146.578 74.1562 147.297 77.0625 148.734 79.0625C150.172 81.0625 152.266 82.0625 155.016 82.0625H165.094V89.375H154.172ZM211.359 89.1875C204.922 89.1875 200.359 87.8906 197.672 85.2969C195.016 82.6719 193.688 78.2031 193.688 71.8906V43.2031H179.672V36.5H193.688V22.7656L202.312 19.0156V36.5H221.906V43.2031H202.312V71.8906C202.312 75.7344 203.047 78.4375 204.516 80C205.984 81.5312 208.547 82.2969 212.203 82.2969H221.906V89.1875H211.359Z" fill="black"/>
<path d="M348.047 90.3594C342.516 90.3594 337.859 89.2031 334.078 86.8906C330.328 84.5469 327.484 81.2969 325.547 77.1406C323.641 72.9844 322.688 68.2031 322.688 62.7969C322.688 57.3594 323.656 52.5781 325.594 48.4531C327.531 44.2969 330.391 41.0625 334.172 38.75C337.953 36.4062 342.641 35.2344 348.234 35.2344C351.141 35.2344 353.766 35.5781 356.109 36.2656C358.453 36.9219 360.844 37.9219 363.281 39.2656V48.3125C361.062 46.3438 358.828 44.8906 356.578 43.9531C354.359 43.0156 351.828 42.5469 348.984 42.5469C344.766 42.5469 341.391 43.4531 338.859 45.2656C336.359 47.0781 334.547 49.5156 333.422 52.5781C332.328 55.6406 331.781 59.0469 331.781 62.7969C331.781 66.5156 332.344 69.9219 333.469 73.0156C334.594 76.0781 336.406 78.5156 338.906 80.3281C341.406 82.1406 344.75 83.0469 348.938 83.0469C351.688 83.0469 354.25 82.5938 356.625 81.6875C359 80.7812 361.219 79.3438 363.281 77.375V86.3281C358.812 89.0156 353.734 90.3594 348.047 90.3594ZM381.984 16.0625H390.609V44.375C393.766 38.2812 398.938 35.2344 406.125 35.2344C410.438 35.2344 413.734 36.2344 416.016 38.2344C418.328 40.2344 419.922 42.8438 420.797 46.0625C421.672 49.2812 422.109 52.75 422.109 56.4688V89H413.438V56.4688C413.438 51.75 412.609 48.2812 410.953 46.0625C409.297 43.8438 406.719 42.7344 403.219 42.7344C399.969 42.7344 397.422 43.5469 395.578 45.1719C393.766 46.7656 392.484 48.8281 391.734 51.3594C390.984 53.8906 390.609 56.5469 390.609 59.3281V89H381.984V16.0625ZM454.547 90.3594C449.484 90.3594 445.297 88.9062 441.984 86C438.703 83.0625 437.062 78.8594 437.062 73.3906C437.062 68.8594 438.156 65.3281 440.344 62.7969C442.531 60.2344 445.391 58.4375 448.922 57.4062C452.453 56.375 456.219 55.8594 460.219 55.8594H471.797V54.5C471.797 50.0312 470.656 46.9219 468.375 45.1719C466.125 43.4219 462.953 42.5469 458.859 42.5469C455.672 42.5469 452.547 42.9844 449.484 43.8594C446.422 44.7344 443.562 45.9531 440.906 47.5156V38.8906C443.781 37.8281 446.688 36.9531 449.625 36.2656C452.562 35.5781 455.562 35.2344 458.625 35.2344C461.75 35.2344 464.781 35.6719 467.719 36.5469C470.688 37.3906 473.25 38.7969 475.406 40.7656C477.562 42.7031 479 45.3125 479.719 48.5938C480.219 50.9062 480.469 54.3906 480.469 59.0469V69.7812C480.469 72.7188 480.625 75.9688 480.938 79.5312C481.281 83.0938 482.047 86.25 483.234 89H474.562C474.031 87.7812 473.609 86.4844 473.297 85.1094C472.984 83.7031 472.734 82.3438 472.547 81.0312C470.703 84.1875 468.141 86.5312 464.859 88.0625C461.609 89.5938 458.172 90.3594 454.547 90.3594ZM456.656 83.1406C460.219 83.1406 463.109 82.2656 465.328 80.5156C467.578 78.7656 469.219 76.4844 470.25 73.6719C471.281 70.8281 471.797 67.7812 471.797 64.5312V62.6094H460.875C458.438 62.6094 456.047 62.8906 453.703 63.4531C451.391 63.9844 449.469 65.0156 447.938 66.5469C446.438 68.0781 445.688 70.3125 445.688 73.25C445.688 76.5625 446.703 79.0469 448.734 80.7031C450.766 82.3281 453.406 83.1406 456.656 83.1406ZM526.359 89.1875C519.922 89.1875 515.359 87.8906 512.672 85.2969C510.016 82.6719 508.688 78.2031 508.688 71.8906V43.2031H494.672V36.5H508.688V22.7656L517.312 19.0156V36.5H536.906V43.2031H517.312V71.8906C517.312 75.7344 518.047 78.4375 519.516 80C520.984 81.5312 523.547 82.2969 527.203 82.2969H536.906V89.1875H526.359Z" fill="#6D6D6D"/>
</svg>
